<?xml version="1.0" standalone="no"?>
<!-- <a href="https://www.flaticon.com/free-icons/robot" title="robot icons">Robot icons created by Freepik - Flaticon</a> -->
<!DOCTYPE svg PUBLIC "-//W3C//DTD SVG 20010904//EN"
 "http://www.w3.org/TR/2001/REC-SVG-20010904/DTD/svg10.dtd">
<svg version="1.0" xmlns="http://www.w3.org/2000/svg"
 width="512.000000pt" height="512.000000pt" viewBox="0 0 512.000000 512.000000"
 preserveAspectRatio="xMidYMid meet">

<g transform="translate(0.000000,512.000000) scale(0.100000,-0.100000)"
fill="#000000" stroke="none">
<path d="M1765 5114 c-142 -31 -229 -77 -322 -170 -69 -70 -130 -171 -147
-246 -6 -28 -7 -28 -89 -28 -95 0 -161 -25 -214 -81 -64 -67 -67 -87 -71 -374
-2 -143 -1 -288 3 -322 9 -83 53 -157 119 -198 45 -27 59 -30 146 -33 l97 -4
13 -41 c22 -75 68 -154 127 -218 119 -128 258 -189 434 -189 l99 0 0 -84 0
-84 -362 -4 c-360 -4 -364 -4 -434 -29 -39 -14 -96 -43 -127 -63 -59 -39 -142
-124 -160 -163 -10 -23 -13 -23 -193 -23 -101 0 -207 -5 -236 -11 -76 -16
-146 -53 -201 -107 -111 -109 -130 -180 -125 -487 l3 -222 27 -36 c16 -19 37
-39 48 -42 18 -6 20 -15 20 -86 0 -97 29 -164 89 -207 l39 -27 4 -315 c5 -352
9 -375 78 -515 21 -44 62 -108 91 -143 l52 -63 2 -87 c1 -73 5 -95 27 -137 25
-47 134 -163 188 -199 31 -21 84 -21 118 0 26 16 255 263 334 360 30 36 38 55
38 86 0 52 -19 81 -99 152 -83 72 -128 96 -197 103 -48 5 -59 11 -93 48 -22
24 -50 63 -63 87 -22 42 -23 52 -26 326 -3 274 0 312 27 312 3 0 19 -26 36
-58 39 -74 134 -169 210 -209 66 -34 154 -63 195 -63 27 0 27 0 32 -90 7 -114
44 -196 119 -264 72 -65 137 -86 286 -93 l123 -6 0 -56 c0 -151 84 -244 234
-258 l66 -6 0 -121 c0 -111 2 -127 26 -174 14 -29 44 -68 67 -87 68 -59 116
-67 360 -63 242 3 257 8 334 91 55 60 73 122 73 254 l0 103 38 0 c59 0 139 28
176 61 48 42 76 105 83 188 l6 71 76 0 c280 0 427 119 441 355 l5 90 53 7 c71
11 154 41 212 78 65 42 152 136 184 199 23 45 29 51 42 40 13 -11 15 -53 12
-298 -3 -277 -4 -287 -26 -329 -13 -24 -41 -63 -63 -87 -34 -37 -45 -43 -93
-48 -69 -7 -114 -31 -197 -103 -80 -71 -99 -100 -99 -152 0 -31 8 -50 38 -86
79 -97 308 -344 334 -360 34 -21 87 -21 118 0 54 36 163 152 188 199 22 42 26
64 27 137 l2 87 52 63 c29 35 70 99 91 143 69 140 73 163 78 515 l4 315 39 27
c60 43 89 110 89 207 0 71 2 80 20 86 11 3 32 23 48 42 l27 36 3 216 c2 137
-1 238 -8 276 -32 163 -156 290 -318 324 -29 6 -133 11 -231 11 l-178 0 -27
41 c-40 60 -121 134 -185 168 -119 63 -132 64 -523 69 l-358 4 0 83 0 82 113
5 c131 6 195 26 299 95 107 70 178 162 224 287 l22 61 99 6 c77 4 107 10 134
26 49 31 85 71 108 123 19 42 21 64 20 350 0 328 -3 348 -53 415 -48 62 -106
88 -214 94 l-94 6 -23 63 c-59 162 -199 298 -364 355 -66 22 -67 22 -861 23
-437 1 -804 0 -815 -2z m1600 -159 c159 -42 280 -167 315 -325 8 -39 11 -181
8 -500 -4 -494 -1 -477 -75 -587 -48 -72 -136 -137 -222 -163 -64 -20 -89 -20
-857 -18 l-790 3 -76 38 c-131 65 -217 181 -238 324 -12 86 -13 786 0 871 24
169 149 313 310 356 84 22 1539 23 1625 1z m-2095 -790 l0 -355 -68 0 c-63 0
-70 2 -98 31 l-29 30 -3 252 c-4 297 -1 330 38 369 26 25 35 28 94 28 l66 0 0
-355z m2719 340 c49 -25 52 -47 49 -359 l-3 -288 -28 -24 c-24 -20 -39 -24
-98 -24 l-69 0 0 355 0 355 60 0 c34 0 74 -7 89 -15z m-971 -1382 l3 -83 -456
0 -455 0 0 85 0 85 453 -2 452 -3 3 -82z m-1342 -250 c56 -168 188 -297 348
-339 28 -8 97 -14 154 -14 l102 0 0 -90 0 -90 -293 0 c-332 0 -336 -1 -392
-79 l-30 -43 -3 -206 c-4 -218 2 -261 41 -314 11 -15 39 -37 62 -48 40 -19 62
-20 609 -20 l567 0 24 25 c14 13 25 36 25 50 0 14 -11 37 -25 50 l-24 25 -554
0 c-417 0 -556 3 -565 12 -13 13 -18 351 -6 382 6 14 89 16 844 16 755 0 838
-2 844 -16 12 -31 7 -369 -6 -382 -8 -8 -56 -12 -150 -12 -134 0 -140 -1 -163
-25 -31 -30 -32 -64 -4 -99 l21 -27 168 3 c159 3 168 4 204 28 22 15 47 45 62
77 25 51 25 53 22 266 l-3 215 -30 43 c-56 78 -60 79 -397 79 l-298 0 0 89 0
89 133 4 c107 4 143 9 190 27 123 48 241 169 284 291 l18 50 165 0 c197 0 273
-11 349 -50 74 -37 152 -122 183 -198 23 -56 23 -63 26 -496 2 -380 1 -446
-13 -495 -32 -110 -110 -201 -214 -250 l-56 -26 -1335 0 -1335 0 -57 29 c-117
58 -197 167 -218 296 -12 81 -13 762 0 849 18 127 99 240 212 295 76 37 123
43 331 45 161 1 178 -1 183 -16z m1614 4 c0 -36 -98 -140 -165 -175 -47 -24
-62 -27 -218 -32 l-169 -5 -29 -33 c-29 -32 -29 -33 -29 -162 l0 -131 -122 3
-123 3 -5 135 c-3 74 -9 141 -14 149 -19 30 -74 41 -205 41 -105 0 -140 4
-183 20 -64 24 -118 66 -158 125 -56 82 -118 75 695 75 582 0 725 -3 725 -13z
m-2494 -344 c-3 -42 -6 -181 -6 -310 l0 -233 -260 0 -260 0 0 193 c0 231 10
277 73 344 65 68 117 82 306 83 l154 0 -7 -77z m3875 61 c39 -12 67 -29 100
-63 69 -69 79 -111 79 -348 l0 -193 -260 0 -260 0 0 279 c0 153 -3 293 -6 310
l-6 31 149 0 c108 0 164 -4 204 -16z m-3881 -813 c0 -49 -4 -65 -24 -88 -24
-28 -25 -28 -166 -31 -157 -4 -181 -1 -210 28 -16 16 -20 34 -20 85 l0 65 210
0 210 0 0 -59z m3960 -4 c0 -50 -4 -68 -20 -85 -29 -31 -50 -34 -210 -30 -141
3 -142 3 -166 31 -20 23 -24 39 -24 88 l0 59 210 0 210 0 0 -63z m-4098 -554
c3 -269 5 -292 26 -343 12 -30 36 -74 53 -98 l31 -43 -52 -52 -52 -52 -32 37
c-35 40 -80 126 -104 198 -12 35 -16 113 -20 343 l-4 297 75 0 75 0 4 -287z
m3966 -10 c-5 -319 -7 -331 -62 -443 -15 -30 -42 -73 -61 -95 l-33 -40 -52 52
-52 52 31 43 c17 24 41 68 53 98 21 51 23 74 26 343 l4 287 75 0 75 0 -4 -297z
m-959 -77 c-4 -76 -7 -88 -35 -122 -16 -21 -43 -47 -58 -58 -27 -21 -41 -21
-608 -26 l-580 -5 -19 -24 c-24 -30 -24 -72 0 -102 l19 -24 381 -3 381 -3 0
-40 c0 -66 -23 -106 -67 -119 -26 -8 -192 -10 -541 -8 l-504 3 -24 28 c-19 22
-24 40 -24 81 l0 53 71 5 c54 4 76 10 92 26 27 28 27 77 -2 105 -21 21 -30 22
-289 27 -229 4 -272 7 -299 22 -41 23 -78 72 -92 123 -12 44 -15 128 -4 138 3
4 501 7 1106 7 l1099 0 -3 -84z m-2628 -535 c24 -15 54 -39 67 -53 l22 -25
-132 -146 c-72 -81 -137 -147 -143 -147 -17 0 -103 92 -114 123 -27 71 -3 143
71 213 58 56 74 63 134 64 38 0 60 -7 95 -29z m3227 15 c36 -19 106 -93 126
-133 18 -37 21 -89 5 -130 -11 -31 -97 -123 -114 -123 -6 0 -71 66 -143 147
l-132 146 22 24 c12 13 43 37 67 54 50 33 122 39 169 15z m-1778 -316 l0 -150
-51 0 c-28 0 -66 7 -85 16 -53 25 -64 57 -64 179 l0 105 100 0 100 0 0 -150z
m360 48 c0 -85 -4 -109 -20 -135 -26 -43 -68 -63 -135 -63 l-55 0 0 150 0 150
105 0 105 0 0 -102z"/>
<path d="M1767 4806 c-88 -32 -167 -115 -184 -195 -5 -20 -8 -227 -8 -461 l0
-425 28 -57 c16 -32 46 -73 69 -92 60 -52 113 -66 244 -66 123 0 147 9 160 62
5 22 0 33 -24 58 -30 29 -32 30 -132 30 -115 0 -150 12 -177 63 -16 29 -18 69
-18 442 0 456 -2 443 68 485 31 19 56 20 760 20 802 0 778 2 817 -62 19 -32
20 -49 20 -444 l0 -411 -23 -34 c-12 -18 -34 -39 -47 -46 -19 -10 -144 -13
-521 -13 -487 0 -497 0 -523 -21 -33 -26 -36 -79 -6 -109 19 -19 33 -20 538
-20 498 0 519 1 562 21 55 25 114 80 143 134 21 39 22 51 25 479 3 510 4 505
-83 592 -88 88 -47 84 -904 84 -602 -1 -753 -4 -784 -14z"/>
<path d="M2090 4360 c-19 -19 -20 -33 -20 -218 0 -195 0 -199 23 -220 41 -39
97 -25 116 29 17 50 14 353 -4 388 -23 46 -80 56 -115 21z"/>
<path d="M2921 4354 c-20 -25 -21 -40 -21 -216 0 -187 0 -189 25 -213 13 -14
36 -25 50 -25 14 0 37 11 50 25 25 24 25 26 25 215 0 189 0 191 -25 215 -33
34 -77 33 -104 -1z"/>
<path d="M1195 2615 l-25 -24 0 -249 c0 -237 1 -251 21 -276 28 -36 80 -36
108 0 20 25 21 39 21 276 l0 249 -25 24 c-13 14 -36 25 -50 25 -14 0 -37 -11
-50 -25z"/>
<path d="M3837 2628 c-31 -25 -37 -68 -37 -287 0 -225 7 -273 40 -291 30 -16
68 -12 90 10 19 19 20 33 20 280 0 247 -1 261 -20 280 -23 23 -68 26 -93 8z"/>
<path d="M1851 2034 c-28 -35 -26 -69 4 -99 23 -24 31 -25 134 -25 61 0 121 5
135 11 49 23 53 104 7 128 -11 6 -74 11 -140 11 -117 0 -120 -1 -140 -26z"/>
<path d="M2360 2040 c-30 -30 -27 -83 6 -109 26 -20 37 -21 420 -21 271 0 401
4 418 11 51 23 55 103 7 128 -13 7 -159 11 -425 11 -393 0 -407 -1 -426 -20z"/>
</g>
</svg>
